<svg xmlns="http://www.w3.org/2000/svg" width="19.438" height="16.906" viewBox="0 0 19.438 16.906">
  <defs>
    <style>
      .cls-1 {
        fill: #fff;
        fill-rule: evenodd;
      }
    </style>
  </defs>
  <path id="Forma_1_copy" data-name="Forma 1 copy" class="cls-1" d="M74.353,620.77a1.615,1.615,0,1,0,1.623,1.615A1.619,1.619,0,0,0,74.353,620.77Zm7.082,0a1.615,1.615,0,1,0,1.623,1.615A1.619,1.619,0,0,0,81.435,620.77Zm4.076-8.851H76.522a0.81,0.81,0,1,0,0,1.62h7.952l-0.5,1.7-8.085,0a0.751,0.751,0,1,0,0,1.5l7.638,0-0.474,1.589H73.938l-0.6-4.8-0.577-4.673a0.909,0.909,0,0,0-.679-0.765l-3.843-.976a0.908,0.908,0,1,0-.451,1.759l3.242,0.823,1.263,9.429a1.1,1.1,0,0,0,1.047,1.1H83.405a1.065,1.065,0,0,0,1.007-.875l2-5.9S87,611.919,85.511,611.919Z" transform="translate(-67.094 -607.094)"/>
</svg>
