<svg xmlns="http://www.w3.org/2000/svg" width="25.25" height="21.875" viewBox="0 0 25.25 21.875">
  <defs>
    <style>
      .cls-1 {
        fill: #ff5816;
        fill-rule: evenodd;
      }
    </style>
  </defs>
  <path id="Forma_1" data-name="Forma 1" class="cls-1" d="M566.559,114.821a2.09,2.09,0,1,0,2.109,2.089A2.1,2.1,0,0,0,566.559,114.821Zm9.206,0a2.09,2.09,0,1,0,2.11,2.089A2.1,2.1,0,0,0,575.765,114.821Zm5.3-11.455H569.379a1.048,1.048,0,1,0,0,2.1h10.338l-0.656,2.2-10.51,0a0.973,0.973,0,1,0,0,1.945l9.929,0-0.616,2.056H566.019l-0.786-6.206-0.751-6.047a1.178,1.178,0,0,0-.882-0.99l-5-1.263a1.186,1.186,0,0,0-1.441.848,1.173,1.173,0,0,0,.855,1.428l4.215,1.066,1.641,12.2a1.427,1.427,0,0,0,1.361,1.424h13.093a1.382,1.382,0,0,0,1.309-1.133l2.6-7.635S583,103.366,581.064,103.366Z" transform="translate(-557.125 -97.125)"/>
</svg>
