<svg xmlns="http://www.w3.org/2000/svg" width="14.876" height="19.907" viewBox="0 0 14.876 19.907">
  <defs>
    <style>
      .cls-1 {
        fill: #499c54;
        fill-rule: evenodd;
      }
    </style>
  </defs>
  <path class="cls-1" d="M644.117,148.7a7.881,7.881,0,0,1,.245-3.013,7.361,7.361,0,0,1,6.912-5.466v-2.044a0.14,0.14,0,0,1,.226-0.105l4.036,3.09a0.133,0.133,0,0,1,0,.207l-4.032,3.09a0.14,0.14,0,0,1-.226-0.106v-2.04a5.29,5.29,0,0,0-4.779,3.374,5.626,5.626,0,0,0,.743,5.544,1.075,1.075,0,0,1-.191,1.5,0.985,0.985,0,0,1-1.393-.2A7.663,7.663,0,0,1,644.117,148.7Zm11.652-3.925a5.547,5.547,0,0,1,1.153,3.135,5.679,5.679,0,0,1-.409,2.408,5.283,5.283,0,0,1-4.78,3.374v-2.04a0.139,0.139,0,0,0-.225-0.1l-4.036,3.09a0.132,0.132,0,0,0,0,.207l4.032,3.09a0.14,0.14,0,0,0,.226-0.106v-2.044a7.346,7.346,0,0,0,6.912-5.466,7.957,7.957,0,0,0,.245-3.012,7.631,7.631,0,0,0-1.537-3.829,0.986,0.986,0,0,0-1.394-.2A1.078,1.078,0,0,0,655.769,144.772Z" transform="translate(-644.062 -138.062)"/>
</svg>
